<svg id="Layer_1" data-name="Layer 1" xmlns="http://www.w3.org/2000/svg" viewBox="0 0 1840.13 538.07"><path d="M479.45,203.55q0,10.27-10.15,10.27H366.41q-37.47,0-37.47,15v78.53q0,17.71,41.5,17.72h98.21q10.55,0,10.54,11.83t-10.54,12H370.44q-19.9,0-28.62-1.56a66,66,0,0,1-19.9-7.16q-11.58-6-16.52-13-5.34-7.42-5.34-19.27v-78.9q0-14.83,13.79-25.51a63.86,63.86,0,0,1,27.71-11.72q8.46-1.43,24.33-1.43H469.3q6.38,0,8.59,3.77C478.93,195.79,479.45,199,479.45,203.55Z" fill="#1fa1db"/><path d="M523.81,338.57q0,10.28-10.15,10.28-9.63,0-11.84-.91-5.46-1.83-5.46-9.37V200.43q0-10.16,10.15-10.15,9.62,0,11.83.78,5.48,1.81,5.47,9.37Z" fill="#1fa1db"/><path d="M647.82,308.79q0,7.44-5,7.44H553.12q-.93,17.17,27.61,17.18H590q6.66,0,6.67,8.33,0,6.7-6.67,6.71-17.52,0-23.5-.6-15-1.46-22-7-10-7.86-10-18.3V292.32q0-14.2,15.56-21,11.36-5,27.69-5.05h33.67q13.43,0,23.42,4.7,13,6.08,13,18Zm-17.6-8.2V290.5q0-9.22-36.67-9.23-4.53,0-9.44.17c-3.28.12-4.72.17-4.32.17q-27.27,0-27.26,9.58v9.4Z" fill="#1fa1db"/><path d="M778.85,323.81q0,24.65-36.93,24.64h-44.1a55.63,55.63,0,0,1-24.44-5.39q-14-6.68-14-18.41V314.21q0-12.84,13.36-19.26,10.26-5,24.57-5h63.86q-1.36-8.64-24.54-8.63-2.49,0-6.09.12c-2.41.09-3.87.13-4.38.13q-6.69,0-6.69-6.66v-1.8q0-6.75,6.66-6.75,22.65,0,33,2.91,19.74,5.47,19.75,22.33Zm-18-18.69h-64a35.43,35.43,0,0,0-11.54,2.05q-7.87,2.58-7.87,6.95v10.37q0,4.45,8.12,6.95a39.32,39.32,0,0,0,11.8,1.88h44.78q12.06,0,15.82-3.17,3.24-2.65,3.24-10.63c0-1.14,0-3.3-.17-6.47S760.81,307.23,760.81,305.12Z" fill="#1fa1db"/><path d="M843.46,275q0,6.66-6.75,6.66H829q-20.78,0-20.77,10.33v49.77q0,5-3.68,6.23-1.46.51-8,.51-6.66,0-6.66-6.84l.25-49.8q0-25.41,46.5-25.41Q843.46,266.4,843.46,275Z" fill="#1fa1db"/><path d="M991.83,254.69,930.3,342.21q-4.53,6.24-11.37,6.24-7,0-11.37-6.24l-61.71-87.52a9.55,9.55,0,0,1-2-5.13q0-5.55,9.29-5.55,7.17,0,9.29,3.11L919,327.59l56.1-80.53c1.42-2,4.54-3.05,9.33-3.05q9.42,0,9.42,5.55A9.25,9.25,0,0,1,991.83,254.69Z" fill="#1fa1db"/><path d="M1023.11,262a8,8,0,0,1-3.67,6.92,15.13,15.13,0,0,1-16.07,0,8.41,8.41,0,0,1-.08-13.84,15.27,15.27,0,0,1,16.15,0A8,8,0,0,1,1023.11,262Zm-2.47,79.65q0,6.76-6.76,6.76-6.15,0-7.69-.6c-2.34-.86-3.5-2.91-3.5-6.16v-62q0-6.66,6.75-6.67c4,0,6.61.17,7.69.51q3.51,1.29,3.51,6.16Z" fill="#1fa1db"/><path d="M1147.13,308.79q0,7.44-5,7.44h-89.66q-.95,17.17,27.61,17.18h9.23q6.66,0,6.66,8.33,0,6.7-6.66,6.71-17.52,0-23.51-.6-15-1.46-22-7-10-7.86-10-18.3V292.32q0-14.2,15.55-21,11.37-5,27.7-5.05h33.67q13.42,0,23.42,4.7,13,6.08,13,18Zm-17.61-8.2V290.5q0-9.22-36.66-9.23-4.53,0-9.45.17c-3.27.12-4.71.17-4.31.17q-27.27,0-27.27,9.58v9.4Z" fill="#1fa1db"/><path d="M1310.8,276.14,1277.39,341q-3,5.73-10.91,5.73-7.67,0-10.65-5.6l-26.67-49.83-27,50q-3.08,5.66-11,5.66-8.19,0-11.18-5.9l-32.73-65a9.72,9.72,0,0,1-1.2-4.27q0-5.81,8.47-5.81,7.44,0,9.57,4l27.66,53.55,27-49.87q3.26-6,10.43-6t10.26,5.9l27,49.93L1294,270.07q2-4,9.5-4,8.55,0,8.55,5.81A9.18,9.18,0,0,1,1310.8,276.14Z" fill="#1fa1db"/><path d="M1514.39,341.69q0,6.76-6.75,6.76c-4.51,0-7.24-.17-8.21-.52-2.56-.74-3.85-2.82-3.85-6.25V304.6h-92v37.08q0,6.76-6.67,6.77-7,0-8.37-.43-3.93-1.2-3.93-6.33V250.93q0-5.13,3.93-6.33a55.82,55.82,0,0,1,8.37-.34q6.67,0,6.67,6.67v38h92v-38c0-3.42,1.32-5.5,3.94-6.24.91-.28,3.61-.43,8.12-.43s6.75,2.23,6.75,6.67Z" fill="#1fa1db"/><path d="M1645.24,253q0,6.75-6.67,6.75H1571q-24.62,0-24.62,9.84v51.6q0,11.64,27.27,11.64h64.53q6.91,0,6.92,7.78t-6.92,7.86h-64.53q-13.08,0-18.8-1a43.16,43.16,0,0,1-13.08-4.7q-7.6-3.95-10.86-8.56-3.5-4.87-3.5-12.66V269.67q0-9.75,9.06-16.77a42.12,42.12,0,0,1,18.2-7.7,103.4,103.4,0,0,1,16-.94h67.94q4.2,0,5.65,2.48Q1645.24,248.45,1645.24,253Z" fill="#1fa1db"/><path d="M1831.48,341.69q0,5.13-4,6.33c-.85.29-3.62.43-8.29.43q-6.66,0-6.67-6.76V274.26l-56,69.06a14.69,14.69,0,0,1-12,5.47,15,15,0,0,1-12.14-5.47l-57-69.39v67.76q0,6.76-6.67,6.76c-4.67,0-7.44-.14-8.29-.43q-4-1.2-4-6.33v-87.5a8.9,8.9,0,0,1,3.25-7.27,11.2,11.2,0,0,1,7.36-2.4,13.91,13.91,0,0,1,11.12,5l66.66,78.86,65.09-78.94a13.2,13.2,0,0,1,10.78-4.94,11,11,0,0,1,7.53,2.57,10,10,0,0,1,3.34,7.95Z" fill="#1fa1db"/><path d="M323.09,500C166.33,500,39.25,372.93,39.25,216.17A282.68,282.68,0,0,1,104.9,34.65,283.22,283.22,0,0,0,2.57,252.84c0,156.76,127.09,283.85,283.85,283.85A283.22,283.22,0,0,0,504.61,434.36,282.68,282.68,0,0,1,323.09,500Z" fill="#1fa1db"/><path d="M151.58,247.17C151.58,127,249,29.5,369.25,29.5a216.77,216.77,0,0,1,139.2,50.35A217.22,217.22,0,0,0,341.12,1.38c-120.21,0-217.67,97.46-217.67,217.67a217.18,217.18,0,0,0,78.47,167.32A216.78,216.78,0,0,1,151.58,247.17Z" fill="#2a6296"/><path d="M226.27,253.53A149.32,149.32,0,0,1,471.1,138.74,149.32,149.32,0,1,0,260.81,349,148.73,148.73,0,0,1,226.27,253.53Z" fill="#1fa1db"/></svg>