<svg id="Layer_1" data-name="Layer 1" xmlns="http://www.w3.org/2000/svg" viewBox="0 0 1247 812"><path d="M732.85,444.41q0,7.72-7.72,7.72c-5.14,0-8.27-.2-9.37-.59q-4.39-1.26-4.4-7.13V402.13H606.28v42.28q0,7.72-7.61,7.72-8,0-9.57-.49-4.5-1.36-4.5-7.23V340.8c0-3.91,1.5-6.31,4.5-7.23q1.56-.39,9.57-.39,7.62,0,7.61,7.62v43.46H711.36V340.8c0-3.91,1.5-6.28,4.49-7.13,1-.32,4.14-.49,9.28-.49s7.72,2.54,7.72,7.62ZM882.36,343.14q0,7.73-7.62,7.72H797.5q-28.12,0-28.13,11.23V421q0,13.27,31.15,13.28h73.73q7.92,0,7.91,8.88t-7.91,9H800.52q-14.94,0-21.48-1.17a49.44,49.44,0,0,1-14.94-5.37q-8.7-4.5-12.41-9.77-4-5.56-4-14.45V362.19q0-11.13,10.35-19.14a47.9,47.9,0,0,1,20.8-8.79,116.43,116.43,0,0,1,18.26-1.08h77.64q4.78,0,6.45,2.84Q882.36,338,882.36,343.14Zm212.89,101.27q0,5.86-4.59,7.23c-1,.33-4.13.49-9.47.49q-7.62,0-7.62-7.72v-77l-64,78.91q-5.08,6.24-13.77,6.25A17.1,17.1,0,0,1,982,446.37l-65.14-79.3v77.34q0,7.72-7.62,7.72-8,0-9.47-.49-4.59-1.36-4.59-7.23v-99.8a10.14,10.14,0,0,1,3.71-8.3,12.82,12.82,0,0,1,8.4-2.74,16,16,0,0,1,12.7,5.67l76.17,90.13,74.41-90.23a15,15,0,0,1,12.31-5.66,12.47,12.47,0,0,1,8.59,2.93,11.41,11.41,0,0,1,3.81,9.08Z" fill="#2c6395"/><rect x="159" width="577" height="640" fill="none"/><path d="M171.94,643.57q0,8.86-8.76,8.87H74.35Q42,652.44,42,665.35v67.72q0,15.28,35.83,15.28h84.79q9.09,0,9.09,10.22t-9.09,10.33H77.83q-17.19,0-24.71-1.35a57,57,0,0,1-17.18-6.18q-10-5.16-14.27-11.23-4.59-6.39-4.6-16.62v-68q0-12.81,11.9-22a55.07,55.07,0,0,1,23.93-10.1q7.29-1.25,21-1.24h89.28q5.5,0,7.41,3.26Q171.94,637.62,171.94,643.57ZM210.35,760q0,8.87-8.76,8.87-8.31,0-10.22-.79-4.73-1.58-4.72-8.08V640.87q0-8.76,8.76-8.76c5.54,0,9,.23,10.22.67q4.71,1.58,4.72,8.09ZM373.41,716.9q0,9.76-6.62,9.77H249q-1.23,22.47,36.27,22.46h6.4c2.77-.07,4.68-.11,5.73-.11q8.76,0,8.76,11,0,8.87-8.76,8.87-23,0-30.88-.79-19.65-1.9-28.86-9.21-13.14-10.32-13.14-24V695.23q0-18.65,20.44-27.52,14.93-6.63,36.38-6.62h44.25q17.64,0,30.77,6.17,17.07,8,17.07,23.7Zm-23.13-10.78V692.87q0-12.14-48.18-12.13-6,0-12.47.22c-4.26.15-6.14.23-5.61.23q-35.82,0-35.83,12.58v12.35Zm195.41,30.43q0,32.36-48.52,32.35H439.22a73.12,73.12,0,0,1-32.12-7.08q-18.41-8.76-18.41-24.14V724q0-16.85,17.52-25.27,13.47-6.51,32.23-6.52h83.78q-1.8-11.34-32.12-11.34-3.25,0-8,.23c-3.14.07-5.05.11-5.72.11q-8.76,0-8.76-8.76v-2.36q0-8.87,8.76-8.87,29.76,0,43.35,3.82,25.93,7.18,25.94,29.31ZM522,712.07H437.88a46.67,46.67,0,0,0-15.17,2.7q-10.32,3.36-10.33,9.09v13.59q0,5.85,10.67,9.1a51.42,51.42,0,0,0,15.5,2.47H497.4q15.83,0,20.77-4.16,4.27-3.48,4.27-13.92,0-2.25-.22-8.42T522,712.07ZM630.7,672.43q0,8.76-8.87,8.76c-.67,0-2.17,0-4.49-.11s-4.12-.12-5.62-.12q-27.29,0-27.29,13.59V760c0,4.41-1.61,7.15-4.83,8.19q-1.9.67-10.44.68-8.76,0-8.76-9l.34-65.36q0-33.34,61.09-33.35Q630.71,661.2,630.7,672.43Zm195-26.62-80.86,115q-5.94,8.31-14.93,8.31-9.21,0-14.94-8.2L633.85,645.81q-2.58-3.81-2.58-6.74,0-7.29,12.24-7.3c6.28,0,10.37,1.35,12.24,4.05l74.12,105.79,73.78-105.79q2.8-4.05,12.24-4.05,12.36,0,12.36,7.3A12.07,12.07,0,0,1,825.66,645.81Zm41.11,9.66a10.55,10.55,0,0,1-4.83,9.1,19.9,19.9,0,0,1-21.11,0,11.07,11.07,0,0,1-.12-18.2,18.3,18.3,0,0,1,10.67-3,18.1,18.1,0,0,1,10.56,3A10.55,10.55,0,0,1,866.77,655.47ZM863.51,760q0,8.87-8.87,8.87-8.08,0-10.11-.79-4.6-1.68-4.6-8.08V678.6q0-8.75,8.87-8.75,8,0,10.11.67,4.61,1.68,4.6,8.08Zm166.21-43.13q0,9.76-6.62,9.77H905.29q-1.23,22.47,36.27,22.46H948c2.77-.07,4.68-.11,5.73-.11q8.76,0,8.76,11,0,8.87-8.76,8.87-23,0-30.88-.79-19.65-1.9-28.86-9.21-13.14-10.32-13.14-24V695.23q0-18.65,20.43-27.52,14.94-6.63,36.39-6.62h44.25q17.63,0,30.77,6.17,17.07,8,17.07,23.7Zm-23.13-10.78V692.87q0-12.14-48.18-12.13-6,0-12.47.22t-5.61.23q-35.83,0-35.83,12.58v12.35ZM1244.79,674l-43.92,85.24q-3.93,7.53-14.37,7.53-10.11,0-14-7.3L1137.53,694l-35.48,65.7q-4,7.41-14.49,7.41-10.79,0-14.71-7.75l-43-85.35a12.91,12.91,0,0,1-1.57-5.61q0-7.65,11.12-7.64,9.76,0,12.58,5.28l36.38,70.3,35.49-65.47q4.28-7.86,13.7-7.87t13.48,7.75l35.49,65.59,36.27-70.3q2.6-5.28,12.47-5.28,11.23,0,11.23,7.64A12.18,12.18,0,0,1,1244.79,674Z" fill="#2c6395"/><path d="M653.93,581.85s-47.79,56.37-147.8,58.76S252.31,581.29,189.72,383.82c-63.53-200.46,63.35-334,132.64-362.57S432.46.8,440.89,1.87C407.28,10.16,328.3,55.91,293.52,152,246.75,281.17,298.46,444.85,426,536.36,536.89,615.93,653.93,581.85,653.93,581.85Z" fill="#00aeef"/><path d="M375,376.4S334.48,315.87,345,230.31s69.87-168,183.31-168,198.58,105.53,216.52,188.9c-18.35-33.92-66.17-107.68-156.51-127.6C472,98,405,183.07,385.42,246.41S375,376.4,375,376.4Z" fill="#2b6297"/><path d="M453.33,368.86s-41.51-73.3-8.87-144.25c32.4-70.43,97.49-88,163.21-60.94s91,92,95.57,117.55C690.25,255,616.71,166.39,530.68,197S447.45,336.29,453.33,368.86Z" fill="#00aeef"/></svg>