<svg id="Layer_1" data-name="Layer 1" xmlns="http://www.w3.org/2000/svg" viewBox="0 0 2213.7 538.07"><path d="M402.11,463s-35.45,41.81-109.62,43.58-188.26-44-234.68-190.46c-47.13-148.68,47-247.75,98.37-268.92S237.85,32,244.09,32.82C219.17,39,160.59,72.9,134.79,144.17c-34.68,95.81,3.67,217.21,98.26,285.09C315.3,488.28,402.11,463,402.11,463Z" fill="#1fa1db"/><path d="M198.41,310.61s-30.08-44.89-22.31-108.35,51.82-124.59,136-124.59,147.29,78.27,160.59,140.11c-13.61-25.16-49.08-79.87-116.08-94.65-86.28-19-135.91,44.09-150.45,91.07S198.41,310.61,198.41,310.61Z" fill="#2b658d"/><path d="M256.48,305s-30.79-54.36-6.58-107c24-52.24,72.31-65.27,121-45.21s67.47,68.22,70.89,87.19c-9.63-19.41-64.18-85.17-128-62.5S252.12,280.87,256.48,305Z" fill="#1fa1db"/><path d="M365.37,418.66q0,13.93-13.75,13.93-13,0-16-1.23-7.41-2.48-7.4-12.7V231.48q0-13.75,13.74-13.76,13.05,0,16.05,1.06,7.39,2.47,7.4,12.7Z" fill="#1fa1db"/><path d="M533.41,378.31q0,10.08-6.83,10.08H405.09q-1.27,23.28,37.41,23.28H455q9,0,9,11.28,0,9.1-9,9.1-23.75,0-31.85-.81-20.27-2-29.76-9.51-13.56-10.67-13.55-24.81V356q0-19.25,21.07-28.41,15.4-6.84,37.53-6.84h45.63q18.18,0,31.73,6.37,17.6,8.24,17.6,24.44Zm-23.85-11.12V353.53q0-12.51-49.69-12.51-6.14,0-12.8.23c-4.44.16-6.38.23-5.84.23q-36.94,0-37,13v12.74Z" fill="#1fa1db"/><path d="M711,398.66q0,33.39-50,33.39H601.17A75.39,75.39,0,0,1,568,424.74q-19-9-19-24.93V385.66q0-17.4,18.1-26.1,13.92-6.72,33.29-6.73H687q-1.86-11.68-33.26-11.69c-2.25,0-5,.05-8.25.17s-5.24.17-5.93.17q-9.07,0-9.07-9V330q0-9.15,9-9.15,30.69,0,44.7,3.94Q711,332.24,711,355.07Zm-24.44-25.33H599.78a47.92,47.92,0,0,0-15.64,2.79q-10.65,3.48-10.65,9.41v14.06q0,6,11,9.41a53,53,0,0,0,16,2.55h60.69q16.32,0,21.42-4.3,4.39-3.6,4.4-14.4,0-2.33-.23-8.77C686.59,379.78,686.52,376.2,686.52,373.33Z" fill="#1fa1db"/><path d="M798.51,332.45q0,9-9.15,9H778.94q-28.14,0-28.14,14v67.43c0,4.55-1.67,7.37-5,8.45q-2,.69-10.78.69-9,0-9-9.27l.35-67.48q0-34.43,63-34.43Q798.51,320.87,798.51,332.45Z" fill="#1fa1db"/><path d="M999.56,305,916.18,423.6Q910,432,900.77,432.05q-9.49,0-15.4-8.45L801.75,305q-2.65-3.93-2.66-6.95,0-7.51,12.59-7.52,9.71,0,12.6,4.21L900.8,403.79l76-109.13q2.89-4.12,12.64-4.13,12.76,0,12.77,7.52C1002.23,300.14,1001.34,302.45,999.56,305Z" fill="#1fa1db"/><path d="M1042,315a10.86,10.86,0,0,1-5,9.38,20.49,20.49,0,0,1-21.77,0,11.4,11.4,0,0,1-.12-18.76,18.89,18.89,0,0,1,11-3.13,18.69,18.69,0,0,1,10.89,3.13A10.89,10.89,0,0,1,1042,315Zm-3.36,107.93q0,9.17-9.15,9.16-8.34,0-10.42-.81-4.75-1.74-4.75-8.35V338.83q0-9,9.15-9c5.48,0,9,.23,10.42.69q4.76,1.74,4.75,8.35Z" fill="#1fa1db"/><path d="M1210,378.31q0,10.08-6.84,10.08H1081.67q-1.28,23.28,37.41,23.28h12.51q9,0,9,11.28,0,9.1-9,9.1-23.74,0-31.85-.81-20.27-2-29.76-9.51-13.56-10.67-13.55-24.81V356q0-19.25,21.07-28.41,15.4-6.84,37.53-6.84h45.63q18.18,0,31.73,6.37,17.61,8.24,17.61,24.44Zm-23.86-11.12V353.53q0-12.51-49.69-12.51-6.14,0-12.79.23c-4.44.16-6.39.23-5.85.23q-36.94,0-37,13v12.74Z" fill="#1fa1db"/><path d="M1431.78,334.07,1386.5,422q-4.05,7.77-14.78,7.76-10.38,0-14.43-7.58l-36.14-67.52-36.61,67.79q-4.15,7.66-14.92,7.66-11.1,0-15.15-8l-44.36-88a13.22,13.22,0,0,1-1.62-5.79q0-7.87,11.47-7.87,10.08,0,13,5.43l37.48,72.57L1307,330.83q4.41-8.1,14.14-8.11t13.89,8l36.62,67.66,37.36-72.54q2.67-5.43,12.87-5.43,11.6,0,11.6,7.87A12.52,12.52,0,0,1,1431.78,334.07Z" fill="#1fa1db"/><path d="M1707.65,422.89q0,9.17-9.15,9.16t-11.12-.7q-5.22-1.5-5.21-8.47V372.64H1557.55v50.24q0,9.18-9,9.17c-6.33,0-10.12-.19-11.35-.58q-5.33-1.62-5.33-8.58v-123q0-6.95,5.33-8.57c1.23-.31,5-.47,11.35-.47q9,0,9,9v51.53h124.62V299.91c0-4.64,1.77-7.45,5.32-8.46,1.24-.38,4.91-.58,11-.58s9.15,3,9.15,9Z" fill="#1fa1db"/><path d="M1885,302.69q0,9.15-9,9.15h-91.61q-33.35,0-33.35,13.33v69.92q0,15.77,36.94,15.77h87.44q9.39,0,9.38,10.54t-9.38,10.65H1787.9q-17.72,0-25.48-1.39a58.63,58.63,0,0,1-17.71-6.38Q1734.39,419,1730,412.69q-4.76-6.6-4.75-17.15V325.3q0-13.21,12.28-22.72a56.82,56.82,0,0,1,24.66-10.43q7.53-1.27,21.66-1.28h92.07q5.67,0,7.65,3.36C1884.49,295.78,1885,298.59,1885,302.69Z" fill="#1fa1db"/><path d="M2137.31,422.89q0,7-5.44,8.58-1.74.58-11.23.58-9,0-9-9.16V331.52l-75.85,93.58q-6,7.41-16.33,7.41T2003,425.1l-77.25-94v91.82q0,9.17-9,9.16c-6.33,0-10.08-.19-11.23-.58q-5.45-1.62-5.45-8.58V304.33a12,12,0,0,1,4.41-9.86,15.12,15.12,0,0,1,10-3.25,18.87,18.87,0,0,1,15.07,6.81l90.32,106.85,88.2-107a17.88,17.88,0,0,1,14.61-6.69,14.85,14.85,0,0,1,10.2,3.48q4.53,3.94,4.52,10.78Z" fill="#1fa1db"/></svg>