<?xml version="1.0"?>
<svg xmlns="http://www.w3.org/2000/svg" xmlns:xlink="http://www.w3.org/1999/xlink" xmlns:svgjs="http://svgjs.com/svgjs" version="1.1" width="512" height="512" x="0" y="0" viewBox="0 0 60 60" style="enable-background:new 0 0 512 512" xml:space="preserve" class=""><g><path xmlns="http://www.w3.org/2000/svg" d="m42 7v-4a2 2 0 0 0 -2-2h-20a2 2 0 0 0 -2 2v4z" fill="#cfd2da" data-original="#cfd2da" class=""/><path xmlns="http://www.w3.org/2000/svg" d="m44 10v-3a2 2 0 0 0 -2-2h-24a2 2 0 0 0 -2 2v3z" fill="#d9dde3" data-original="#d9dde3" class=""/><path xmlns="http://www.w3.org/2000/svg" d="m44 10v-3a2 2 0 0 0 -2-2h-24a2 2 0 0 0 -2 2v3z" fill="#d9dde3" data-original="#d9dde3" class=""/><path xmlns="http://www.w3.org/2000/svg" d="m14 19v-8a2.006 2.006 0 0 1 2-2h28a2.006 2.006 0 0 1 2 2v8z" fill="#bdc2cc" data-original="#bdc2cc"/><path xmlns="http://www.w3.org/2000/svg" d="m14 19v-8a2.006 2.006 0 0 1 2-2h28a2.006 2.006 0 0 1 2 2v8z" fill="#cfd2da" data-original="#cfd2da" class=""/><path xmlns="http://www.w3.org/2000/svg" d="m59 41-6.7-10.537a1 1 0 0 0 -.849-.463h-42.902a1 1 0 0 0 -.844.463l-6.705 10.537 1 5h56z" fill="#1e8dc8" data-original="#bf9159" class=""/><path xmlns="http://www.w3.org/2000/svg" d="m52 30.17v15.83h-44v-15.83a.967.967 0 0 1 .55-.17h42.9a.967.967 0 0 1 .55.17z" fill="#2471a3" data-original="#ad8151" class=""/><path xmlns="http://www.w3.org/2000/svg" d="m12 56v-34.172a2 2 0 0 1 .586-1.414l6.828-6.828a2 2 0 0 1 1.414-.586h25.172a2 2 0 0 1 2 2v41z" fill="#d9dde3" data-original="#d9dde3" class=""/><path xmlns="http://www.w3.org/2000/svg" d="m59 41v16a2 2 0 0 1 -2 2h-54a2 2 0 0 1 -2-2v-16h16a2 2 0 0 1 2 2 2 2 0 0 0 2 2h18a2 2 0 0 0 2-2 2 2 0 0 1 2-2z" fill="#1e8dc8" data-original="#d8a766" class=""/><rect xmlns="http://www.w3.org/2000/svg" fill="#2471a3" height="4" rx="2" width="22" x="19" y="50" data-original="#ad8151" class=""/><path xmlns="http://www.w3.org/2000/svg" d="m20 13.18v5.82a2.006 2.006 0 0 1 -2 2h-5.82a2.017 2.017 0 0 1 .41-.59l6.82-6.82a2.017 2.017 0 0 1 .59-.41z" fill="#f1f3f5" data-original="#f1f3f5"/><g xmlns="http://www.w3.org/2000/svg" fill="#373737"><path d="m39 49h-18a3 3 0 0 0 0 6h18a3 3 0 0 0 0-6zm0 4h-18a1 1 0 0 1 0-2h18a1 1 0 0 1 0 2z" fill="#373737" data-original="#373737" class=""/><path d="m59.944 40.724a.992.992 0 0 0 -.071-.186c-.013-.024-.014-.051-.029-.075l-6.7-10.538a1.993 1.993 0 0 0 -1.693-.925h-2.451v-14a3 3 0 0 0 -2-2.816v-1.184a3 3 0 0 0 -2-2.816v-1.184a3 3 0 0 0 -2-2.816v-1.184a3 3 0 0 0 -3-3h-20a3 3 0 0 0 -3 3v1.184a3 3 0 0 0 -2 2.816v1.184a3 3 0 0 0 -2 2.816v7.586l-1.121 1.121a2.974 2.974 0 0 0 -.593.863.645.645 0 0 0 -.031.058 2.984 2.984 0 0 0 -.255 1.2v4.172a1 1 0 0 0 2 0v-4h5a3 3 0 0 0 3-3v-5h25a1 1 0 0 1 1 1v25h-4a3 3 0 0 0 -3 3 1 1 0 0 1 -1 1h-18a1 1 0 0 1 -1-1 3 3 0 0 0 -3-3h-4v-10a1 1 0 0 0 -1-1h-3.451a1.992 1.992 0 0 0 -1.688.926l-6.705 10.537c-.015.024-.016.051-.029.075a.966.966 0 0 0 -.071.186.9.9 0 0 0 -.04.2c0 .027-.016.05-.016.078v15.998a3 3 0 0 0 3 3h54a3 3 0 0 0 3-3v-16c0-.028-.014-.051-.016-.078a.9.9 0 0 0 -.04-.198zm-2.766-.724h-4.178v-6.566zm-37.178-38h20a1 1 0 0 1 1 1v1h-22v-1a1 1 0 0 1 1-1zm-2 4h24a1 1 0 0 1 1 1v1h-26v-1a1 1 0 0 1 1-1zm-3 5a1 1 0 0 1 1-1h28a1 1 0 0 1 1 1v1h-24.172a2.977 2.977 0 0 0 -1.2.256c-.019.007-.034.019-.052.027a3 3 0 0 0 -.867.6l-3.709 3.703zm3 9h-3.586l.292-.292 4.294-4.294v3.586a1 1 0 0 1 -1 1zm31 11h2v9h-2zm-40 9v-9h2v9zm-2-6.566v6.566h-4.178zm51 23.566a1 1 0 0 1 -1 1h-54a1 1 0 0 1 -1-1v-15h15a1 1 0 0 1 1 1 3 3 0 0 0 3 3h18a3 3 0 0 0 3-3 1 1 0 0 1 1-1h15z" fill="#373737" data-original="#373737" class=""/><path d="m40 25h-20a1 1 0 0 0 0 2h20a1 1 0 0 0 0-2z" fill="#373737" data-original="#373737" class=""/><path d="m40 29h-1a1 1 0 0 0 0 2h1a1 1 0 0 0 0-2z" fill="#373737" data-original="#373737" class=""/><path d="m20 31h15a1 1 0 0 0 0-2h-15a1 1 0 0 0 0 2z" fill="#373737" data-original="#373737" class=""/><path d="m40 33h-15a1 1 0 0 0 0 2h15a1 1 0 0 0 0-2z" fill="#373737" data-original="#373737" class=""/><path d="m20 35h1a1 1 0 0 0 0-2h-1a1 1 0 0 0 0 2z" fill="#373737" data-original="#373737" class=""/><path d="m20 39h11a1 1 0 0 0 0-2h-11a1 1 0 0 0 0 2z" fill="#373737" data-original="#373737" class=""/></g></g></svg>
