<svg xmlns="http://www.w3.org/2000/svg" version="1.1" xmlns:xlink="http://www.w3.org/1999/xlink" xmlns:svgjs="http://svgjs.com/svgjs" width="512" height="512" x="0" y="0" viewBox="0 0 24 24" style="enable-background:new 0 0 512 512" xml:space="preserve" class=""><g transform="matrix(1.32,0,0,1.32,-3.84000007629394,-3.839999999999991)"><path id="id-card" d="m18 4.5h-12a2.652 2.652 0 0 0 -3 3v9a2.652 2.652 0 0 0 3 3h12a2.652 2.652 0 0 0 3-3v-9a2.652 2.652 0 0 0 -3-3zm-8.994 3a2.15 2.15 0 1 1 -2.15 2.15 2.152 2.152 0 0 1 2.15-2.15zm3.494 8.5a.5.5 0 0 1 -.5.5h-6a.5.5 0 0 1 -.5-.5v-.3a2.687 2.687 0 0 1 2.858-2.7h1.284a2.687 2.687 0 0 1 2.858 2.7zm5.45-1.25h-3a.75.75 0 0 1 0-1.5h3a.75.75 0 0 1 0 1.5zm.05-4.062h-4a.75.75 0 0 1 0-1.5h4a.75.75 0 0 1 0 1.5z" fill="#ffffff" data-original="#000000" class=""></path></g></svg>