<svg width="94" height="94" viewBox="0 0 94 94" fill="none" xmlns="http://www.w3.org/2000/svg">
<g clip-path="url(#clip0_2723_12506)">
<path d="M47 94C72.9574 94 94 72.9574 94 47C94 21.0426 72.9574 0 47 0C21.0426 0 0 21.0426 0 47C0 72.9574 21.0426 94 47 94Z" fill="#83C8EC"/>
<path d="M42.3816 44.1925V44.1735C42.3816 43.0093 41.6181 42.5224 40.2629 42.1693C39.1082 41.8734 38.8219 41.7304 38.8219 41.2912V41.2724C38.8219 40.9478 39.1177 40.6902 39.6807 40.6902C40.1389 40.6902 40.5968 40.8525 41.0837 41.1388C41.1982 41.2056 41.3128 41.2437 41.4558 41.2437C41.8375 41.2437 42.1429 40.9478 42.1429 40.5661C42.1443 40.4492 42.1151 40.334 42.0582 40.2319C42.0013 40.1297 41.9187 40.0443 41.8185 39.984C41.2173 39.6023 40.511 39.3922 39.6998 39.3922C38.335 39.3922 37.3616 40.194 37.3616 41.406V41.425C37.3616 42.7517 38.2302 43.1236 39.5757 43.4674C40.6923 43.7536 40.9212 43.9446 40.9212 44.3167V44.3358C40.9212 44.7271 40.5586 44.9657 39.9574 44.9657C39.3084 44.9657 38.7548 44.7366 38.249 44.3643C38.1268 44.2763 37.9797 44.2295 37.8291 44.2309C37.4475 44.2309 37.1421 44.5268 37.1421 44.9084C37.1421 45.1375 37.2566 45.3474 37.4189 45.4619C38.1632 45.9964 39.0508 46.2637 39.9288 46.2637C41.3699 46.2633 42.3816 45.519 42.3816 44.1925Z" fill="#1E8DC8"/>
<path d="M47.0002 76.4397C47.9557 76.4397 48.7303 75.6651 48.7303 74.7096C48.7303 73.7541 47.9557 72.9794 47.0002 72.9794C46.0446 72.9794 45.27 73.7541 45.27 74.7096C45.27 75.6651 46.0446 76.4397 47.0002 76.4397Z" fill="#1E8DC8"/>
<path d="M51.8095 45.4617C52.554 45.9962 53.4416 46.2635 54.3195 46.2635C55.7605 46.2635 56.7723 45.519 56.7723 44.1925V44.1735C56.7723 43.0093 56.0088 42.5224 54.6536 42.1693C53.4989 41.8734 53.2125 41.7304 53.2125 41.2912V41.2724C53.2125 40.9478 53.5084 40.6902 54.0715 40.6902C54.5295 40.6902 54.9876 40.8525 55.4743 41.1388C55.5889 41.2056 55.7034 41.2437 55.8465 41.2437C56.2282 41.2437 56.5337 40.9478 56.5337 40.5661C56.5351 40.4492 56.5059 40.3339 56.449 40.2318C56.392 40.1297 56.3093 40.0442 56.2091 39.984C55.6079 39.6023 54.9017 39.3922 54.0906 39.3922C52.7257 39.3922 51.7523 40.194 51.7523 41.406V41.425C51.7523 42.7517 52.6208 43.1236 53.9663 43.4674C55.083 43.7536 55.312 43.9446 55.312 44.3167V44.3358C55.312 44.7271 54.9492 44.9657 54.3482 44.9657C53.6992 44.9657 53.1457 44.7366 52.6398 44.3643C52.5176 44.2763 52.3705 44.2295 52.2199 44.2309C51.8381 44.2309 51.5327 44.5268 51.5327 44.9084C51.5326 45.1373 51.6474 45.347 51.8095 45.4617ZM44.3755 46.2253C44.7764 46.2253 45.1008 45.9104 45.1008 45.5095V42.1883L46.37 44.1448C46.5228 44.3738 46.7136 44.5169 46.9807 44.5169C47.248 44.5169 47.4389 44.3738 47.5915 44.1448L48.8799 42.1598V45.4905C48.8799 45.8912 49.2043 46.2253 49.605 46.2253C49.7017 46.226 49.7976 46.2075 49.8871 46.1709C49.9766 46.1342 50.0579 46.0801 50.1263 46.0117C50.1947 45.9434 50.2488 45.8621 50.2855 45.7726C50.3222 45.6831 50.3407 45.5872 50.34 45.4905V40.1841C50.3407 40.0874 50.3222 39.9915 50.2856 39.902C50.2489 39.8125 50.1948 39.7312 50.1264 39.6628C50.058 39.5944 49.9767 39.5403 49.8871 39.5037C49.7976 39.467 49.7017 39.4486 49.605 39.4493H49.4427C49.1469 39.4493 48.937 39.5734 48.7842 39.8215L46.9996 42.7228L45.2245 39.831C45.0909 39.6115 44.8713 39.4493 44.5565 39.4493H44.3942C44.2974 39.4486 44.2015 39.467 44.112 39.5037C44.0225 39.5403 43.9412 39.5944 43.8728 39.6628C43.8044 39.7312 43.7503 39.8125 43.7136 39.902C43.6769 39.9915 43.6584 40.0874 43.6592 40.1841V45.5095C43.6599 45.9102 43.9748 46.2253 44.3755 46.2253Z" fill="#1E8DC8"/>
<path d="M61.7376 14.1H32.2623C29.6387 14.1 27.5044 16.2345 27.5044 18.8579V75.1421C27.5044 77.7655 29.6387 79.9 32.2623 79.9H61.7376C64.361 79.9 66.4955 77.7655 66.4955 75.1421V18.8579C66.4955 16.2345 64.3609 14.1 61.7376 14.1ZM63.9003 75.1421C63.9003 76.3347 62.9302 77.3048 61.7376 77.3048H32.2623C31.0697 77.3048 30.0996 76.3347 30.0996 75.1421V72.3452H63.9003V75.1421ZM63.9003 69.75H30.0996V22.977H63.9003V69.75ZM63.9003 20.3818H30.0996V18.8579C30.0996 17.6653 31.0697 16.6952 32.2623 16.6952H61.7376C62.9302 16.6952 63.9003 17.6653 63.9003 18.8579V20.3818Z" fill="#1E8DC8"/>
<path d="M49.3069 17.2705H44.6931C43.9765 17.2705 43.3955 17.8513 43.3955 18.5681C43.3955 19.2849 43.9765 19.8657 44.6931 19.8657H49.3069C50.0237 19.8657 50.6045 19.2849 50.6045 18.5681C50.6045 17.8513 50.0237 17.2705 49.3069 17.2705Z" fill="#1E8DC8"/>
<path d="M41.2039 19.8657C41.9205 19.8657 42.5015 19.2847 42.5015 18.5681C42.5015 17.8514 41.9205 17.2705 41.2039 17.2705C40.4872 17.2705 39.9062 17.8514 39.9062 18.5681C39.9062 19.2847 40.4872 19.8657 41.2039 19.8657Z" fill="#1E8DC8"/>
<path d="M46.9999 57.3649C48.904 57.3649 50.7515 57.0051 52.501 56.2942C54.0005 57.0928 55.6736 57.5101 57.3726 57.5092C58.5137 57.5095 59.647 57.3211 60.7266 56.9516C60.9505 56.8752 61.1492 56.739 61.3013 56.5578C61.4534 56.3766 61.553 56.1573 61.5895 55.9235C61.6259 55.6898 61.5977 55.4506 61.508 55.2317C61.4183 55.0128 61.2704 54.8226 61.0804 54.6817C60.0146 53.8929 59.1686 52.8441 58.6233 51.6354C60.5933 49.074 61.6618 45.9334 61.6628 42.702C61.6628 34.6169 55.085 28.0391 46.9999 28.0391C38.9147 28.0391 32.3369 34.6169 32.3369 42.702C32.3369 50.7871 38.9146 57.3649 46.9999 57.3649ZM46.9999 30.6343C53.654 30.6343 59.0676 36.0479 59.0676 42.702C59.0667 45.5859 58.0327 48.374 56.153 50.5612C56.005 50.7334 55.9048 50.9415 55.8623 51.1646C55.8199 51.3877 55.8368 51.6181 55.9113 51.8326C56.2973 52.9478 56.8711 53.9888 57.608 54.9106C56.0785 54.9569 54.5693 54.5508 53.2695 53.7431C53.0871 53.6294 52.8794 53.5629 52.6649 53.5495C52.4504 53.536 52.2359 53.5761 52.0408 53.6661C50.451 54.3983 48.7551 54.7697 46.9999 54.7697C40.3457 54.7697 34.9321 49.3561 34.9321 42.702C34.932 36.0479 40.3456 30.6343 46.9999 30.6343Z" fill="#1E8DC8"/>
</g>
<defs>
<clipPath id="clip0_2723_12506">
<rect width="94" height="94" fill="white"/>
</clipPath>
</defs>
</svg>
